<?xml version="1.0" encoding="utf-8"?>
<!-- Generator: Adobe Illustrator 21.0.2, SVG Export Plug-In . SVG Version: 6.00 Build 0)  -->
<svg version="1.1" id="Capa_1" xmlns="http://www.w3.org/2000/svg" xmlns:xlink="http://www.w3.org/1999/xlink" x="0px" y="0px"
	 viewBox="0 0 1293.8 32" style="enable-background:new 0 0 1293.8 32;" xml:space="preserve">
<style type="text/css">
	.st0{fill:#6B7F8D;}
	.st1{fill:#6B7F8F;}
</style>
<g>
	<path class="st0" d="M420.7,4.7c0.8,0,1.5,0.1,2.3,0.4s1.4,0.7,2,1.3s1,1.2,1.3,2c0.3,0.7,0.4,1.5,0.4,2.3s-0.1,1.5-0.4,2.3
		c-0.3,0.7-0.7,1.4-1.3,2l-3,3c-0.1,0.1-0.1,0.1-0.3,0.2c-0.6,0.5-1.2,0.9-1.9,1.1c-0.7,0.3-1.4,0.4-2.1,0.4c-0.9,0-1.8-0.2-2.6-0.6
		c-0.6-0.3-1.2-0.7-1.7-1.2s-0.9-1-1.2-1.7c0.4-0.4,0.9-0.6,1.4-0.6c0.2,0,0.4,0,0.6,0.1c0.3,0.5,0.8,1,1.3,1.3
		c0.6,0.4,1.3,0.6,2.1,0.6c0.5,0,1-0.1,1.5-0.3c0.5-0.2,0.9-0.5,1.3-0.9l3-3c0.4-0.4,0.7-0.8,0.9-1.3s0.3-1,0.3-1.5s-0.1-1-0.3-1.5
		s-0.5-0.9-0.9-1.3c-0.4-0.4-0.8-0.7-1.3-0.9c-0.5-0.2-1-0.3-1.5-0.3s-1,0.1-1.5,0.3s-0.9,0.5-1.3,0.9l-2.1,2.1
		c-0.7-0.2-1.4-0.3-2.1-0.3c-0.1,0-0.3,0-0.5,0c0.1-0.1,0.2-0.2,0.2-0.3l3-3c0.6-0.6,1.2-1,2-1.3C419.2,4.9,419.9,4.7,420.7,4.7
		L420.7,4.7z M413.7,11.7c0.9,0,1.8,0.2,2.6,0.6c0.6,0.3,1.2,0.7,1.7,1.2s0.9,1,1.2,1.7c-0.4,0.4-0.9,0.6-1.4,0.6
		c-0.2,0-0.4,0-0.6-0.1c-0.3-0.5-0.8-1-1.3-1.3c-0.6-0.4-1.3-0.6-2.1-0.6c-0.5,0-1,0.1-1.5,0.3s-0.9,0.5-1.3,0.9l-3,3
		c-0.4,0.4-0.7,0.8-0.9,1.3s-0.3,1-0.3,1.5s0.1,1,0.3,1.5s0.5,0.9,0.9,1.3s0.8,0.7,1.3,0.9c0.5,0.2,1,0.3,1.5,0.3s1-0.1,1.5-0.3
		c0.5-0.2,0.9-0.5,1.3-0.9l2.1-2.1c0.7,0.2,1.4,0.3,2.1,0.3c0.1,0,0.3,0,0.5,0c-0.1,0.1-0.2,0.2-0.2,0.3l-3,3c-0.6,0.6-1.2,1-2,1.3
		s-1.5,0.4-2.3,0.4s-1.5-0.1-2.3-0.4c-0.7-0.3-1.4-0.7-2-1.3c-0.6-0.6-1-1.2-1.3-2c-0.3-0.7-0.4-1.5-0.4-2.3s0.1-1.5,0.4-2.3
		c0.3-0.7,0.7-1.4,1.3-2l3-3c0.1-0.1,0.1-0.1,0.3-0.2c0.6-0.5,1.2-0.9,1.9-1.1C412.3,11.9,413,11.7,413.7,11.7L413.7,11.7z"/>
</g>
<g>
	<g>
		<g>
			<g>
				<path class="st0" d="M908.9,27.7c-6.6,0-12-5.4-12-12s5.4-12,12-12c6.6,0,12,5.4,12,12S915.5,27.7,908.9,27.7z M908.9,5.7
					c-5.6,0-10.1,4.5-10.1,10.1s4.5,10.1,10.1,10.1c5.6,0,10.1-4.5,10.1-10.1S914.4,5.7,908.9,5.7z"/>
			</g>
		</g>
	</g>
	<g>
		<path class="st0" d="M904.3,14.2L904.3,14.2c-0.6,0-1-0.4-1-1l0,0c0-0.6,0.4-1,1-1l0,0c0.6,0,1,0.4,1,1l0,0
			C905.3,13.8,904.8,14.2,904.3,14.2z"/>
	</g>
	<g>
		<path class="st0" d="M913.5,14.2L913.5,14.2c-0.6,0-1-0.4-1-1l0,0c0-0.6,0.4-1,1-1l0,0c0.6,0,1,0.4,1,1l0,0
			C914.5,13.8,914.1,14.2,913.5,14.2z"/>
	</g>
	<g>
		<path class="st0" d="M908.9,23.2c-2,0-3.9-1.1-4.8-2.8c-0.3-0.5,0-1.2,0.6-1.4l0,0c0.5-0.2,0.9,0.1,1.2,0.5
			c0.6,1.1,1.8,1.7,3.1,1.7c1.2,0,2.3-0.6,3-1.6c0.3-0.4,0.8-0.6,1.2-0.4l0,0c0.6,0.2,0.8,1,0.4,1.5
			C912.5,22.2,910.8,23.2,908.9,23.2z"/>
	</g>
</g>
<g>
	<g>
		<path class="st0" d="M1156.5,20.7h-1.8c-0.2,0-0.4,0-0.5-0.1c-0.1-0.1-0.2-0.2-0.3-0.3l-0.6-1.7h-3.8l-0.6,1.7
			c0,0.1-0.1,0.2-0.3,0.3c-0.1,0.1-0.3,0.1-0.5,0.1h-1.8l3.9-10h2.4L1156.5,20.7z M1150,17h2.7l-0.9-2.8c-0.1-0.2-0.1-0.4-0.2-0.6
			c-0.1-0.2-0.2-0.5-0.2-0.8c-0.1,0.3-0.1,0.5-0.2,0.8c-0.1,0.2-0.2,0.5-0.2,0.6L1150,17z"/>
		<path class="st0" d="M1164.7,10.8v0.8c0,0.1,0,0.2-0.1,0.4c0,0.1-0.1,0.2-0.2,0.3l-4.7,6.7h4.8v1.8h-7.8v-0.9
			c0-0.1,0.1-0.2,0.1-0.3c0-0.1,0.1-0.2,0.2-0.3l4.8-6.8h-4.5v-1.8L1164.7,10.8L1164.7,10.8z"/>
	</g>
	<polygon class="st0" points="1152.4,8.8 1155.5,5.7 1158.6,8.8 	"/>
	<polygon class="st0" points="1158.6,22.7 1155.5,25.8 1152.4,22.7 	"/>
</g>
<g>
	<path class="st0" d="M169.1,19.7c-1.1,0-2,0.9-2,2s0.9,2,2,2s2-0.9,2-2S170.2,19.7,169.1,19.7z"/>
	<path class="st0" d="M169.1,13.7c-1.1,0-2,0.9-2,2s0.9,2,2,2s2-0.9,2-2S170.2,13.7,169.1,13.7z"/>
	<path class="st0" d="M169.1,11.8c1.1,0,2-0.9,2-2s-0.9-2-2-2s-2,0.9-2,2S168,11.8,169.1,11.8z"/>
</g>
<g>
	<circle class="st0" cx="298.4" cy="9.7" r="2"/>
	<circle class="st0" cx="292.4" cy="9.7" r="2"/>
	<circle class="st0" cx="286.4" cy="9.7" r="2"/>
	<circle class="st0" cx="298.4" cy="15.7" r="2"/>
	<circle class="st0" cx="292.4" cy="15.7" r="2"/>
	<circle class="st0" cx="286.4" cy="15.7" r="2"/>
	<circle class="st0" cx="298.4" cy="21.7" r="2"/>
	<circle class="st0" cx="292.4" cy="21.7" r="2"/>
	<circle class="st0" cx="286.4" cy="21.7" r="2"/>
</g>
<path class="st1" d="M35.5,11.2c0-0.4,0.1-0.7,0.4-0.9c0.3-0.3,0.6-0.4,0.9-0.4c0.4,0,0.7,0.1,0.9,0.4l8.1,8.1l8.1-8.1
	c0.3-0.3,0.6-0.4,0.9-0.4c0.4,0,0.7,0.1,0.9,0.4c0.3,0.3,0.4,0.6,0.4,0.9c0,0.4-0.1,0.7-0.4,0.9l-9,9c-0.2,0.2-0.6,0.4-0.9,0.4
	s-0.7-0.1-0.9-0.4l-9-9C35.6,11.9,35.5,11.6,35.5,11.2z"/>
<path class="st1" d="M672,22.3c-0.3-0.6-1.3-2.4-1.3-2.9v-5c0-2.3-1-4.5-2.6-6l0,0l0,0c-0.8-0.8-1.8-1.4-3-1.8
	c-0.2-1.3-1.4-2.3-2.8-2.3s-2.6,1-2.8,2.3c-1,0.3-1.8,0.9-2.6,1.5c-0.2,0.2-0.4,0.3-0.4,0.3s0,0,0,0.1c-1.6,1.5-2.6,3.7-2.6,6.1v5
	c0,0.4-0.8,2.2-1.7,3.7c-0.2,0.3-0.2,0.7,0,1s0.5,0.5,0.9,0.5h3.4h2.2c0.4,1.6,1.9,2.8,3.7,2.8s3.3-1.2,3.7-2.8h1.1h4.4
	c0.4,0,0.7-0.2,0.9-0.5C672.7,23.6,672.5,23.2,672,22.3z M662.3,6.1L662.3,6.1C662.3,6.1,662.2,6.1,662.3,6.1
	C662.2,6.1,662.2,6.1,662.3,6.1z M662.3,25.4c-0.6,0-1.2-0.3-1.5-0.8h3C663.5,25.1,662.9,25.4,662.3,25.4z M667,22.6h-2h-5.6h-3.1
	h-1.7c0.6-1.1,1.1-2.4,1.1-3.2v-5c0-1.8,0.8-3.5,2-4.7l0,0l0,0c0.2-0.1,0.3-0.3,0.5-0.4c1.2-0.8,4.3-2.4,8.3,0.6
	c1.2,1.2,1.9,2.8,1.9,4.5v5c0,0.8,0.5,2,1.2,3.2C669.6,22.6,667,22.6,667,22.6z"/>
<g>
	<path class="st1" d="M539,4.7c0.3,0,0.5,0.1,0.7,0.3l5,5c0.2,0.2,0.3,0.4,0.3,0.7s-0.1,0.5-0.3,0.7s-0.4,0.3-0.7,0.3
		s-0.5-0.1-0.7-0.3L540,8.1v11.6c0,0.3-0.1,0.5-0.3,0.7s-0.4,0.3-0.7,0.3s-0.5-0.1-0.7-0.3c-0.2-0.2-0.3-0.4-0.3-0.7V8.2l-3.3,3.3
		c-0.2,0.2-0.4,0.3-0.7,0.3s-0.5-0.1-0.7-0.3s-0.3-0.4-0.3-0.7s0.1-0.5,0.3-0.7l5-5C538.5,4.8,538.8,4.7,539,4.7z M549,18.7
		c0.3,0,0.5,0.1,0.7,0.3c0.2,0.2,0.3,0.4,0.3,0.7v4c0,0.8-0.3,1.5-0.9,2.1c-0.6,0.6-1.3,0.9-2.1,0.9h-16c-0.8,0-1.5-0.3-2.1-0.9
		s-0.9-1.3-0.9-2.1v-4c0-0.3,0.1-0.5,0.3-0.7s0.4-0.3,0.7-0.3s0.5,0.1,0.7,0.3c0.2,0.2,0.3,0.4,0.3,0.7v4c0,0.3,0.1,0.5,0.3,0.7
		s0.4,0.3,0.7,0.3h16c0.3,0,0.5-0.1,0.7-0.3s0.3-0.4,0.3-0.7v-4c0-0.3,0.1-0.5,0.3-0.7S548.8,18.7,549,18.7z"/>
</g>
<g>
	<path class="st0" d="M793.1,12.7h-11.9c-0.6,0-1-0.4-1-1v-0.1c0-0.6,0.4-1,1-1h11.9c0.6,0,1,0.4,1,1v0.1
		C794.1,12.2,793.7,12.7,793.1,12.7z"/>
	<path class="st0" d="M793.1,16.8h-11.9c-0.6,0-1-0.4-1-1v-0.1c0-0.6,0.4-1,1-1h11.9c0.6,0,1,0.4,1,1v0.1
		C794.1,16.3,793.7,16.8,793.1,16.8z"/>
	<path class="st0" d="M793.1,20.9h-11.9c-0.6,0-1-0.4-1-1v-0.1c0-0.6,0.4-1,1-1h11.9c0.6,0,1,0.4,1,1v0.1
		C794.1,20.5,793.7,20.9,793.1,20.9z"/>
	<path class="st0" d="M778.1,12.7L778.1,12.7c-0.6,0-1-0.4-1-1v-0.1c0-0.6,0.4-1,1-1l0,0c0.6,0,1,0.4,1,1v0.1
		C779.1,12.2,778.7,12.7,778.1,12.7z"/>
	<path class="st0" d="M778.1,16.8L778.1,16.8c-0.6,0-1-0.4-1-1v-0.1c0-0.6,0.4-1,1-1l0,0c0.6,0,1,0.4,1,1v0.1
		C779.1,16.3,778.7,16.8,778.1,16.8z"/>
	<path class="st0" d="M778.1,20.9L778.1,20.9c-0.6,0-1-0.4-1-1v-0.1c0-0.6,0.4-1,1-1l0,0c0.6,0,1,0.4,1,1v0.1
		C779.1,20.5,778.7,20.9,778.1,20.9z"/>
</g>
<g>
	<g>
		<path class="st0" d="M1027.2,4.7h10c0.8,0,1.5,0.3,2.1,0.9c0.6,0.6,0.9,1.3,0.9,2.1v19l-8-6l-8,6v-19c0-0.8,0.3-1.5,0.9-2.1
			S1026.4,4.7,1027.2,4.7z M1037.2,6.7h-10c-0.3,0-0.5,0.1-0.7,0.3s-0.3,0.4-0.3,0.7v15l6-4.5l6,4.5v-15c0-0.3-0.1-0.5-0.3-0.7
			C1037.7,6.8,1037.5,6.7,1037.2,6.7z"/>
	</g>
	<polygon class="st0" points="1037.3,11.7 1034.8,14.2 1034.8,14.2 1035.4,17.7 1032.2,16.1 1029,17.7 1029.6,14.2 1027,11.7 
		1030.6,11.2 1032.2,7.9 1033.8,11.2 	"/>
</g>
<g>
	<path class="st1" d="M1267.8,12h22l-11,12L1267.8,12z"/>
</g>
</svg>
